<svg width="354" height="61" viewBox="0 0 354 61" fill="none" xmlns="http://www.w3.org/2000/svg">
<g clip-path="url(#clip0_1701_18)">
<path d="M34 18C37.315 18 40 15.315 40 12C40 8.685 37.315 6 34 6C30.685 6 28 8.685 28 12C28 15.315 30.685 18 34 18ZM34 21C29.995 21 22 23.01 22 27V30H46V27C46 23.01 38.005 21 34 21Z" fill="#2D2D2D"/>
</g>
<path d="M10.64 57H8.472V47.088H3.448V57H1.288V45.432H10.64V57ZM14.7489 54.872C14.9729 55.144 15.2155 55.336 15.4769 55.448C15.7435 55.56 16.0315 55.616 16.3409 55.616C16.6395 55.616 16.9089 55.56 17.1489 55.448C17.3889 55.336 17.5915 55.1653 17.7569 54.936C17.9275 54.7067 18.0582 54.4187 18.1489 54.072C18.2395 53.72 18.2849 53.3067 18.2849 52.832C18.2849 52.352 18.2449 51.9467 18.1649 51.616C18.0902 51.28 17.9809 51.008 17.8369 50.8C17.6929 50.592 17.5169 50.44 17.3089 50.344C17.1062 50.248 16.8742 50.2 16.6129 50.2C16.2022 50.2 15.8529 50.288 15.5649 50.464C15.2769 50.6347 15.0049 50.8773 14.7489 51.192V54.872ZM14.6449 49.912C14.9809 49.5333 15.3622 49.2267 15.7889 48.992C16.2155 48.7573 16.7169 48.64 17.2929 48.64C17.7409 48.64 18.1489 48.7333 18.5169 48.92C18.8902 49.1067 19.2102 49.3787 19.4769 49.736C19.7489 50.088 19.9569 50.5253 20.1009 51.048C20.2502 51.5653 20.3249 52.16 20.3249 52.832C20.3249 53.4453 20.2422 54.0133 20.0769 54.536C19.9115 55.0587 19.6742 55.512 19.3649 55.896C19.0609 56.28 18.6902 56.5813 18.2529 56.8C17.8209 57.0133 17.3355 57.12 16.7969 57.12C16.3382 57.12 15.9462 57.0507 15.6209 56.912C15.2955 56.768 15.0049 56.5707 14.7489 56.32V59.68H12.7729V48.792H13.9809C14.2369 48.792 14.4049 48.912 14.4849 49.152L14.6449 49.912ZM25.483 48.664C26.091 48.664 26.643 48.7627 27.139 48.96C27.6403 49.1573 28.067 49.4373 28.419 49.8C28.7763 50.1627 29.051 50.6053 29.243 51.128C29.435 51.6507 29.531 52.2347 29.531 52.88C29.531 53.5307 29.435 54.1173 29.243 54.64C29.051 55.1627 28.7763 55.608 28.419 55.976C28.067 56.344 27.6403 56.6267 27.139 56.824C26.643 57.0213 26.091 57.12 25.483 57.12C24.8697 57.12 24.3123 57.0213 23.811 56.824C23.3097 56.6267 22.8803 56.344 22.523 55.976C22.171 55.608 21.8963 55.1627 21.699 54.64C21.507 54.1173 21.411 53.5307 21.411 52.88C21.411 52.2347 21.507 51.6507 21.699 51.128C21.8963 50.6053 22.171 50.1627 22.523 49.8C22.8803 49.4373 23.3097 49.1573 23.811 48.96C24.3123 48.7627 24.8697 48.664 25.483 48.664ZM25.483 55.6C26.1657 55.6 26.6697 55.3707 26.995 54.912C27.3257 54.4533 27.491 53.7813 27.491 52.896C27.491 52.0107 27.3257 51.336 26.995 50.872C26.6697 50.408 26.1657 50.176 25.483 50.176C24.7897 50.176 24.275 50.4107 23.939 50.88C23.6083 51.344 23.443 52.016 23.443 52.896C23.443 53.776 23.6083 54.448 23.939 54.912C24.275 55.3707 24.7897 55.6 25.483 55.6ZM36.7745 55.648C37.5692 55.5893 38.1825 55.3227 38.6145 54.848C39.0518 54.3733 39.2705 53.7227 39.2705 52.896C39.2705 52.0693 39.0518 51.4187 38.6145 50.944C38.1825 50.464 37.5692 50.1947 36.7745 50.136V55.648ZM35.0465 50.136C34.6518 50.168 34.2998 50.2533 33.9905 50.392C33.6865 50.5253 33.4252 50.7093 33.2065 50.944C32.9932 51.1787 32.8305 51.4613 32.7185 51.792C32.6065 52.1173 32.5505 52.4853 32.5505 52.896C32.5505 53.3067 32.6065 53.6773 32.7185 54.008C32.8305 54.3333 32.9932 54.6133 33.2065 54.848C33.4252 55.0773 33.6865 55.2613 33.9905 55.4C34.2998 55.5333 34.6518 55.616 35.0465 55.648V50.136ZM36.8385 48.672C37.4945 48.7093 38.0918 48.8347 38.6305 49.048C39.1745 49.256 39.6385 49.5413 40.0225 49.904C40.4118 50.2667 40.7132 50.6987 40.9265 51.2C41.1398 51.7013 41.2465 52.2613 41.2465 52.88C41.2465 53.504 41.1398 54.0693 40.9265 54.576C40.7132 55.0773 40.4118 55.5093 40.0225 55.872C39.6385 56.2347 39.1745 56.5227 38.6305 56.736C38.0918 56.9493 37.4945 57.0747 36.8385 57.112V59.752H34.9825V57.112C34.3265 57.0747 33.7265 56.9493 33.1825 56.736C32.6438 56.5227 32.1798 56.2347 31.7905 55.872C31.4065 55.5093 31.1078 55.0773 30.8945 54.576C30.6812 54.0693 30.5745 53.504 30.5745 52.88C30.5745 52.2613 30.6812 51.7013 30.8945 51.2C31.1078 50.6987 31.4065 50.2667 31.7905 49.904C32.1798 49.5413 32.6438 49.256 33.1825 49.048C33.7265 48.8347 34.3265 48.7093 34.9825 48.672V45.432H36.8385V48.672ZM50.1176 48.792V57H48.1416V52.208C48.1416 52.0853 48.147 51.952 48.1576 51.808C48.1736 51.6587 48.1923 51.5093 48.2136 51.36C48.107 51.6053 47.9896 51.8213 47.8616 52.008C47.851 52.0187 47.7976 52.0933 47.7016 52.232C47.6056 52.3653 47.4803 52.5387 47.3256 52.752C47.1763 52.9653 47.0056 53.208 46.8136 53.48C46.6216 53.7467 46.427 54.0187 46.2296 54.296C45.7656 54.952 45.2403 55.6933 44.6536 56.52C44.579 56.632 44.4803 56.7413 44.3576 56.848C44.2403 56.9547 44.1043 57.008 43.9496 57.008H42.7416V48.8H44.7176V53.592C44.7176 53.7147 44.7096 53.8507 44.6936 54C44.683 54.144 44.667 54.2907 44.6456 54.44C44.763 54.1787 44.8803 53.9627 44.9976 53.792C45.003 53.7813 45.0536 53.7093 45.1496 53.576C45.2456 53.4427 45.3683 53.2693 45.5176 53.056C45.6723 52.8427 45.8456 52.6027 46.0376 52.336C46.2296 52.064 46.4243 51.7867 46.6216 51.504C47.0856 50.848 47.6136 50.1067 48.2056 49.28C48.2803 49.1627 48.379 49.0533 48.5016 48.952C48.6243 48.8453 48.763 48.792 48.9176 48.792H50.1176ZM59.6858 57H57.7098V50.304H55.6938C55.6298 51.312 55.5311 52.1813 55.3978 52.912C55.2644 53.6373 55.1044 54.2533 54.9178 54.76C54.7364 55.2667 54.5311 55.6747 54.3018 55.984C54.0778 56.288 53.8378 56.5253 53.5818 56.696C53.3258 56.8667 53.0618 56.9787 52.7898 57.032C52.5178 57.0907 52.2431 57.12 51.9658 57.12C51.6724 57.12 51.4564 57.0933 51.3178 57.04C51.1844 56.992 51.1178 56.9227 51.1178 56.832V55.6H51.5898C51.7658 55.6 51.9418 55.5733 52.1178 55.52C52.2938 55.4667 52.4644 55.3573 52.6298 55.192C52.7951 55.0267 52.9524 54.792 53.1018 54.488C53.2511 54.1787 53.3871 53.7733 53.5098 53.272C53.6378 52.7653 53.7498 52.1467 53.8458 51.416C53.9418 50.6853 54.0164 49.8107 54.0698 48.792H59.6858V57ZM64.9843 55.584C65.4323 55.584 65.7656 55.472 65.9843 55.248C66.2083 55.024 66.3203 54.736 66.3203 54.384C66.3203 54.2347 66.2936 54.0907 66.2403 53.952C66.1923 53.8133 66.1149 53.6907 66.0083 53.584C65.9016 53.4773 65.7629 53.3947 65.5923 53.336C65.4216 53.272 65.2163 53.24 64.9763 53.24H63.5123V55.584H64.9843ZM64.9683 51.832C65.5389 51.832 66.0216 51.9013 66.4163 52.04C66.8109 52.1787 67.1309 52.3653 67.3763 52.6C67.6216 52.8347 67.7976 53.1067 67.9043 53.416C68.0163 53.72 68.0723 54.04 68.0723 54.376C68.0723 54.76 68.0029 55.1147 67.8643 55.44C67.7309 55.76 67.5309 56.0373 67.2643 56.272C67.0029 56.5013 66.6803 56.68 66.2963 56.808C65.9176 56.936 65.4829 57 64.9923 57H61.6323V48.792H63.5123V51.832H64.9683Z" fill="#2D2D2D"/>
<g clip-path="url(#clip1_1701_18)">
<path d="M163.5 27C161.85 27 160.515 28.35 160.515 30C160.515 31.65 161.85 33 163.5 33C165.15 33 166.5 31.65 166.5 30C166.5 28.35 165.15 27 163.5 27ZM154.5 3V6H157.5L162.9 17.385L160.875 21.06C160.635 21.48 160.5 21.975 160.5 22.5C160.5 24.15 161.85 25.5 163.5 25.5H181.5V22.5H164.13C163.92 22.5 163.755 22.335 163.755 22.125L163.8 21.945L165.15 19.5H176.325C177.45 19.5 178.44 18.885 178.95 17.955L184.32 8.22C184.44 8.01 184.5 7.755 184.5 7.5C184.5 6.675 183.825 6 183 6H160.815L159.405 3H154.5ZM178.5 27C176.85 27 175.515 28.35 175.515 30C175.515 31.65 176.85 33 178.5 33C180.15 33 181.5 31.65 181.5 30C181.5 28.35 180.15 27 178.5 27Z" fill="#2D2D2D"/>
<circle cx="182" cy="7" r="7" fill="white"/>
<path d="M184.867 10.39C185.054 10.39 185.201 10.4437 185.308 10.551C185.42 10.6537 185.476 10.7913 185.476 10.964V12H178.532V11.426C178.532 11.3093 178.555 11.188 178.602 11.062C178.653 10.9313 178.733 10.8147 178.84 10.712L181.913 7.632C182.17 7.37067 182.398 7.121 182.599 6.883C182.804 6.645 182.975 6.40933 183.11 6.176C183.245 5.94267 183.348 5.707 183.418 5.469C183.493 5.22633 183.53 4.972 183.53 4.706C183.53 4.46333 183.495 4.251 183.425 4.069C183.355 3.88233 183.255 3.726 183.124 3.6C182.998 3.474 182.844 3.38067 182.662 3.32C182.485 3.25467 182.284 3.222 182.06 3.222C181.855 3.222 181.663 3.25233 181.486 3.313C181.313 3.369 181.159 3.45067 181.024 3.558C180.889 3.66067 180.774 3.782 180.681 3.922C180.588 4.062 180.518 4.216 180.471 4.384C180.392 4.59867 180.289 4.741 180.163 4.811C180.037 4.881 179.855 4.89733 179.617 4.86L178.707 4.699C178.777 4.21367 178.912 3.789 179.113 3.425C179.314 3.05633 179.563 2.75067 179.862 2.508C180.165 2.26067 180.511 2.07633 180.898 1.955C181.29 1.829 181.71 1.766 182.158 1.766C182.625 1.766 183.052 1.836 183.439 1.976C183.826 2.11133 184.158 2.305 184.433 2.557C184.708 2.809 184.923 3.11233 185.077 3.467C185.231 3.82167 185.308 4.216 185.308 4.65C185.308 5.02333 185.252 5.36867 185.14 5.686C185.033 6.00333 184.886 6.30667 184.699 6.596C184.517 6.88533 184.302 7.16533 184.055 7.436C183.808 7.70667 183.549 7.982 183.278 8.262L180.996 10.593C181.215 10.5277 181.432 10.4787 181.647 10.446C181.866 10.4087 182.074 10.39 182.27 10.39H184.867Z" fill="#3670C7"/>
</g>
<path d="M150.104 57H148.152C147.949 57 147.779 56.9467 147.64 56.84C147.507 56.7333 147.381 56.576 147.264 56.368L144.8 52.48C144.736 52.368 144.667 52.2773 144.592 52.208C144.523 52.1333 144.445 52.0747 144.36 52.032C144.28 51.984 144.187 51.952 144.08 51.936C143.979 51.92 143.861 51.912 143.728 51.912H142.44V57H140.288V45.432H142.44V50.28H143.528C143.747 50.28 143.936 50.2427 144.096 50.168C144.256 50.0933 144.405 49.9547 144.544 49.752L147.08 46.008C147.187 45.8373 147.312 45.6987 147.456 45.592C147.6 45.4853 147.773 45.432 147.976 45.432H149.816L146.672 50.072C146.539 50.2747 146.384 50.4427 146.208 50.576C146.032 50.7093 145.837 50.8133 145.624 50.888C145.944 50.9787 146.213 51.1227 146.432 51.32C146.656 51.512 146.869 51.7787 147.072 52.12L150.104 57ZM154.124 48.664C154.732 48.664 155.284 48.7627 155.78 48.96C156.281 49.1573 156.708 49.4373 157.06 49.8C157.417 50.1627 157.692 50.6053 157.884 51.128C158.076 51.6507 158.172 52.2347 158.172 52.88C158.172 53.5307 158.076 54.1173 157.884 54.64C157.692 55.1627 157.417 55.608 157.06 55.976C156.708 56.344 156.281 56.6267 155.78 56.824C155.284 57.0213 154.732 57.12 154.124 57.12C153.51 57.12 152.953 57.0213 152.452 56.824C151.95 56.6267 151.521 56.344 151.164 55.976C150.812 55.608 150.537 55.1627 150.34 54.64C150.148 54.1173 150.052 53.5307 150.052 52.88C150.052 52.2347 150.148 51.6507 150.34 51.128C150.537 50.6053 150.812 50.1627 151.164 49.8C151.521 49.4373 151.95 49.1573 152.452 48.96C152.953 48.7627 153.51 48.664 154.124 48.664ZM154.124 55.6C154.806 55.6 155.31 55.3707 155.636 54.912C155.966 54.4533 156.132 53.7813 156.132 52.896C156.132 52.0107 155.966 51.336 155.636 50.872C155.31 50.408 154.806 50.176 154.124 50.176C153.43 50.176 152.916 50.4107 152.58 50.88C152.249 51.344 152.084 52.016 152.084 52.896C152.084 53.776 152.249 54.448 152.58 54.912C152.916 55.3707 153.43 55.6 154.124 55.6ZM161.655 54.872C161.879 55.144 162.122 55.336 162.383 55.448C162.65 55.56 162.938 55.616 163.247 55.616C163.546 55.616 163.815 55.56 164.055 55.448C164.295 55.336 164.498 55.1653 164.663 54.936C164.834 54.7067 164.964 54.4187 165.055 54.072C165.146 53.72 165.191 53.3067 165.191 52.832C165.191 52.352 165.151 51.9467 165.071 51.616C164.996 51.28 164.887 51.008 164.743 50.8C164.599 50.592 164.423 50.44 164.215 50.344C164.012 50.248 163.78 50.2 163.519 50.2C163.108 50.2 162.759 50.288 162.471 50.464C162.183 50.6347 161.911 50.8773 161.655 51.192V54.872ZM161.551 49.912C161.887 49.5333 162.268 49.2267 162.695 48.992C163.122 48.7573 163.623 48.64 164.199 48.64C164.647 48.64 165.055 48.7333 165.423 48.92C165.796 49.1067 166.116 49.3787 166.383 49.736C166.655 50.088 166.863 50.5253 167.007 51.048C167.156 51.5653 167.231 52.16 167.231 52.832C167.231 53.4453 167.148 54.0133 166.983 54.536C166.818 55.0587 166.58 55.512 166.271 55.896C165.967 56.28 165.596 56.5813 165.159 56.8C164.727 57.0133 164.242 57.12 163.703 57.12C163.244 57.12 162.852 57.0507 162.527 56.912C162.202 56.768 161.911 56.5707 161.655 56.32V59.68H159.679V48.792H160.887C161.143 48.792 161.311 48.912 161.391 49.152L161.551 49.912ZM168.137 49.68C168.446 49.3813 168.83 49.1387 169.289 48.952C169.747 48.76 170.297 48.664 170.937 48.664C171.443 48.664 171.894 48.7253 172.289 48.848C172.683 48.9653 173.014 49.128 173.281 49.336C173.553 49.5387 173.758 49.7733 173.897 50.04C174.041 50.3013 174.113 50.576 174.113 50.864C174.113 51.0187 174.089 51.1813 174.041 51.352C173.998 51.5173 173.923 51.68 173.817 51.84C173.715 52 173.579 52.1493 173.409 52.288C173.238 52.4213 173.027 52.536 172.777 52.632C173.225 52.8027 173.585 53.0533 173.857 53.384C174.134 53.7147 174.273 54.1227 174.273 54.608C174.273 55.008 174.179 55.3627 173.993 55.672C173.811 55.9813 173.569 56.2453 173.265 56.464C172.961 56.6773 172.611 56.84 172.217 56.952C171.827 57.064 171.425 57.12 171.009 57.12C170.774 57.12 170.521 57.0987 170.249 57.056C169.982 57.0133 169.713 56.9413 169.441 56.84C169.169 56.7333 168.902 56.5947 168.641 56.424C168.379 56.248 168.142 56.032 167.929 55.776L168.497 55.056C168.577 54.9333 168.697 54.872 168.857 54.872C168.979 54.872 169.097 54.912 169.209 54.992C169.321 55.0667 169.449 55.152 169.593 55.248C169.742 55.3387 169.918 55.424 170.121 55.504C170.323 55.5787 170.577 55.616 170.881 55.616C171.377 55.616 171.753 55.504 172.009 55.28C172.265 55.056 172.393 54.776 172.393 54.44C172.393 54.1093 172.259 53.8507 171.993 53.664C171.731 53.4773 171.305 53.384 170.713 53.384H169.785V52.096H170.713C171.23 52.096 171.627 52.0053 171.905 51.824C172.182 51.6427 172.321 51.4027 172.321 51.104C172.321 50.832 172.198 50.608 171.953 50.432C171.713 50.256 171.355 50.168 170.881 50.168C170.598 50.168 170.358 50.1973 170.161 50.256C169.963 50.3147 169.793 50.3787 169.649 50.448C169.51 50.512 169.393 50.5733 169.297 50.632C169.201 50.6907 169.11 50.72 169.025 50.72C168.934 50.72 168.857 50.704 168.793 50.672C168.729 50.6347 168.659 50.5573 168.585 50.44L168.137 49.68ZM183.196 48.792V57H181.22V52.208C181.22 52.0853 181.225 51.952 181.236 51.808C181.252 51.6587 181.27 51.5093 181.292 51.36C181.185 51.6053 181.068 51.8213 180.94 52.008C180.929 52.0187 180.876 52.0933 180.78 52.232C180.684 52.3653 180.558 52.5387 180.404 52.752C180.254 52.9653 180.084 53.208 179.892 53.48C179.7 53.7467 179.505 54.0187 179.308 54.296C178.844 54.952 178.318 55.6933 177.732 56.52C177.657 56.632 177.558 56.7413 177.436 56.848C177.318 56.9547 177.182 57.008 177.028 57.008H175.82V48.8H177.796V53.592C177.796 53.7147 177.788 53.8507 177.772 54C177.761 54.144 177.745 54.2907 177.724 54.44C177.841 54.1787 177.958 53.9627 178.076 53.792C178.081 53.7813 178.132 53.7093 178.228 53.576C178.324 53.4427 178.446 53.2693 178.596 53.056C178.75 52.8427 178.924 52.6027 179.116 52.336C179.308 52.064 179.502 51.7867 179.7 51.504C180.164 50.848 180.692 50.1067 181.284 49.28C181.358 49.1627 181.457 49.0533 181.58 48.952C181.702 48.8453 181.841 48.792 181.996 48.792H183.196ZM192.3 48.792V57H190.324V53.368H187.124V57H185.148V48.792H187.124V51.904H190.324V48.792H192.3ZM198.593 53.496C198.023 53.5227 197.543 53.5733 197.153 53.648C196.764 53.7173 196.452 53.808 196.217 53.92C195.983 54.032 195.815 54.1627 195.713 54.312C195.612 54.4613 195.561 54.624 195.561 54.8C195.561 55.1467 195.663 55.3947 195.865 55.544C196.073 55.6933 196.343 55.768 196.673 55.768C197.079 55.768 197.428 55.696 197.721 55.552C198.02 55.4027 198.311 55.1787 198.593 54.88V53.496ZM194.065 49.936C195.009 49.072 196.145 48.64 197.473 48.64C197.953 48.64 198.383 48.72 198.761 48.88C199.14 49.0347 199.46 49.2533 199.721 49.536C199.983 49.8133 200.18 50.1467 200.313 50.536C200.452 50.9253 200.521 51.352 200.521 51.816V57H199.625C199.439 57 199.295 56.9733 199.193 56.92C199.092 56.8613 199.012 56.7467 198.953 56.576L198.777 55.984C198.569 56.1707 198.367 56.336 198.169 56.48C197.972 56.6187 197.767 56.736 197.553 56.832C197.34 56.928 197.111 57 196.865 57.048C196.625 57.1013 196.359 57.128 196.065 57.128C195.719 57.128 195.399 57.0827 195.105 56.992C194.812 56.896 194.559 56.7547 194.345 56.568C194.132 56.3813 193.967 56.1493 193.849 55.872C193.732 55.5947 193.673 55.272 193.673 54.904C193.673 54.696 193.708 54.4907 193.777 54.288C193.847 54.08 193.959 53.8827 194.113 53.696C194.273 53.5093 194.479 53.3333 194.729 53.168C194.98 53.0027 195.287 52.8587 195.649 52.736C196.017 52.6133 196.444 52.5147 196.929 52.44C197.415 52.36 197.969 52.312 198.593 52.296V51.816C198.593 51.2667 198.476 50.8613 198.241 50.6C198.007 50.3333 197.668 50.2 197.225 50.2C196.905 50.2 196.639 50.2373 196.425 50.312C196.217 50.3867 196.033 50.472 195.873 50.568C195.713 50.6587 195.567 50.7413 195.433 50.816C195.305 50.8907 195.161 50.928 195.001 50.928C194.863 50.928 194.745 50.8933 194.649 50.824C194.553 50.7493 194.476 50.664 194.417 50.568L194.065 49.936Z" fill="#2D2D2D"/>
<g clip-path="url(#clip2_1701_18)">
<path d="M313 32.025L310.825 30.045C303.1 23.04 298 18.42 298 12.75C298 8.13 301.63 4.5 306.25 4.5C308.86 4.5 311.365 5.715 313 7.635C314.635 5.715 317.14 4.5 319.75 4.5C324.37 4.5 328 8.13 328 12.75C328 18.42 322.9 23.04 315.175 30.06L313 32.025Z" fill="#2D2D2D"/>
</g>
<path d="M283.04 45.432V57H280.88V49.752C280.88 49.48 280.885 49.1947 280.896 48.896C280.912 48.5973 280.944 48.28 280.992 47.944C280.885 48.2427 280.768 48.52 280.64 48.776C280.517 49.0267 280.397 49.248 280.28 49.44L275.856 56.336C275.808 56.416 275.749 56.496 275.68 56.576C275.616 56.656 275.544 56.728 275.464 56.792C275.384 56.8507 275.296 56.9013 275.2 56.944C275.104 56.9813 275.005 57 274.904 57H273.288V45.432H275.448V52.68C275.448 52.952 275.44 53.24 275.424 53.544C275.413 53.8427 275.384 54.16 275.336 54.496C275.443 54.1973 275.557 53.92 275.68 53.664C275.808 53.408 275.933 53.184 276.056 52.992L280.472 46.096C280.52 46.016 280.576 45.936 280.64 45.856C280.709 45.776 280.784 45.7067 280.864 45.648C280.944 45.584 281.029 45.5333 281.12 45.496C281.216 45.4533 281.317 45.432 281.424 45.432H283.04ZM284.637 49.68C284.946 49.3813 285.33 49.1387 285.789 48.952C286.247 48.76 286.797 48.664 287.437 48.664C287.943 48.664 288.394 48.7253 288.789 48.848C289.183 48.9653 289.514 49.128 289.781 49.336C290.053 49.5387 290.258 49.7733 290.397 50.04C290.541 50.3013 290.613 50.576 290.613 50.864C290.613 51.0187 290.589 51.1813 290.541 51.352C290.498 51.5173 290.423 51.68 290.317 51.84C290.215 52 290.079 52.1493 289.909 52.288C289.738 52.4213 289.527 52.536 289.277 52.632C289.725 52.8027 290.085 53.0533 290.357 53.384C290.634 53.7147 290.773 54.1227 290.773 54.608C290.773 55.008 290.679 55.3627 290.493 55.672C290.311 55.9813 290.069 56.2453 289.765 56.464C289.461 56.6773 289.111 56.84 288.717 56.952C288.327 57.064 287.925 57.12 287.509 57.12C287.274 57.12 287.021 57.0987 286.749 57.056C286.482 57.0133 286.213 56.9413 285.941 56.84C285.669 56.7333 285.402 56.5947 285.141 56.424C284.879 56.248 284.642 56.032 284.429 55.776L284.997 55.056C285.077 54.9333 285.197 54.872 285.357 54.872C285.479 54.872 285.597 54.912 285.709 54.992C285.821 55.0667 285.949 55.152 286.093 55.248C286.242 55.3387 286.418 55.424 286.621 55.504C286.823 55.5787 287.077 55.616 287.381 55.616C287.877 55.616 288.253 55.504 288.509 55.28C288.765 55.056 288.893 54.776 288.893 54.44C288.893 54.1093 288.759 53.8507 288.493 53.664C288.231 53.4773 287.805 53.384 287.213 53.384H286.285V52.096H287.213C287.73 52.096 288.127 52.0053 288.405 51.824C288.682 51.6427 288.821 51.4027 288.821 51.104C288.821 50.832 288.698 50.608 288.453 50.432C288.213 50.256 287.855 50.168 287.381 50.168C287.098 50.168 286.858 50.1973 286.661 50.256C286.463 50.3147 286.293 50.3787 286.149 50.448C286.01 50.512 285.893 50.5733 285.797 50.632C285.701 50.6907 285.61 50.72 285.525 50.72C285.434 50.72 285.357 50.704 285.293 50.672C285.229 50.6347 285.159 50.5573 285.085 50.44L284.637 49.68ZM296.176 55.68C296.858 55.68 297.368 55.4613 297.704 55.024C298.04 54.5867 298.208 53.9467 298.208 53.104C298.208 52.2667 298.042 51.6293 297.712 51.192C297.386 50.7547 296.888 50.536 296.216 50.536C295.544 50.536 295.032 50.744 294.68 51.16C294.328 51.5707 294.152 52.1867 294.152 53.008C294.152 53.8773 294.317 54.5413 294.648 55C294.984 55.4533 295.493 55.68 296.176 55.68ZM296.752 47.304C296.25 47.336 295.821 47.4347 295.464 47.6C295.112 47.76 294.818 47.9787 294.584 48.256C294.354 48.528 294.178 48.856 294.056 49.24C293.938 49.6187 293.869 50.04 293.848 50.504C293.981 50.296 294.144 50.1067 294.336 49.936C294.533 49.76 294.752 49.6107 294.992 49.488C295.237 49.36 295.501 49.2613 295.784 49.192C296.072 49.1227 296.378 49.088 296.704 49.088C297.248 49.088 297.738 49.184 298.176 49.376C298.613 49.568 298.984 49.84 299.288 50.192C299.597 50.544 299.832 50.968 299.992 51.464C300.157 51.9547 300.24 52.4987 300.24 53.096C300.24 53.7147 300.141 54.272 299.944 54.768C299.752 55.264 299.477 55.688 299.12 56.04C298.768 56.3867 298.341 56.6533 297.84 56.84C297.338 57.0267 296.784 57.12 296.176 57.12C295.584 57.12 295.037 57.024 294.536 56.832C294.04 56.64 293.61 56.328 293.248 55.896C292.885 55.464 292.602 54.904 292.4 54.216C292.197 53.5227 292.096 52.6773 292.096 51.68C292.096 50.8427 292.173 50.064 292.328 49.344C292.482 48.624 292.736 47.9947 293.088 47.456C293.44 46.912 293.901 46.4747 294.472 46.144C295.042 45.8133 295.746 45.616 296.584 45.552L299.504 45.328L299.608 46.352C299.629 46.5707 299.597 46.7573 299.512 46.912C299.426 47.0613 299.274 47.1413 299.056 47.152L296.752 47.304ZM303.749 54.872C303.973 55.144 304.216 55.336 304.477 55.448C304.744 55.56 305.032 55.616 305.341 55.616C305.64 55.616 305.909 55.56 306.149 55.448C306.389 55.336 306.592 55.1653 306.757 54.936C306.928 54.7067 307.058 54.4187 307.149 54.072C307.24 53.72 307.285 53.3067 307.285 52.832C307.285 52.352 307.245 51.9467 307.165 51.616C307.09 51.28 306.981 51.008 306.837 50.8C306.693 50.592 306.517 50.44 306.309 50.344C306.106 50.248 305.874 50.2 305.613 50.2C305.202 50.2 304.853 50.288 304.565 50.464C304.277 50.6347 304.005 50.8773 303.749 51.192V54.872ZM303.645 49.912C303.981 49.5333 304.362 49.2267 304.789 48.992C305.216 48.7573 305.717 48.64 306.293 48.64C306.741 48.64 307.149 48.7333 307.517 48.92C307.89 49.1067 308.21 49.3787 308.477 49.736C308.749 50.088 308.957 50.5253 309.101 51.048C309.25 51.5653 309.325 52.16 309.325 52.832C309.325 53.4453 309.242 54.0133 309.077 54.536C308.912 55.0587 308.674 55.512 308.365 55.896C308.061 56.28 307.69 56.5813 307.253 56.8C306.821 57.0133 306.336 57.12 305.797 57.12C305.338 57.12 304.946 57.0507 304.621 56.912C304.296 56.768 304.005 56.5707 303.749 56.32V59.68H301.773V48.792H302.981C303.237 48.792 303.405 48.912 303.485 49.152L303.645 49.912ZM315.187 53.496C314.616 53.5227 314.136 53.5733 313.747 53.648C313.358 53.7173 313.046 53.808 312.811 53.92C312.576 54.032 312.408 54.1627 312.307 54.312C312.206 54.4613 312.155 54.624 312.155 54.8C312.155 55.1467 312.256 55.3947 312.459 55.544C312.667 55.6933 312.936 55.768 313.267 55.768C313.672 55.768 314.022 55.696 314.315 55.552C314.614 55.4027 314.904 55.1787 315.187 54.88V53.496ZM310.659 49.936C311.603 49.072 312.739 48.64 314.067 48.64C314.547 48.64 314.976 48.72 315.355 48.88C315.734 49.0347 316.054 49.2533 316.315 49.536C316.576 49.8133 316.774 50.1467 316.907 50.536C317.046 50.9253 317.115 51.352 317.115 51.816V57H316.219C316.032 57 315.888 56.9733 315.787 56.92C315.686 56.8613 315.606 56.7467 315.547 56.576L315.371 55.984C315.163 56.1707 314.96 56.336 314.763 56.48C314.566 56.6187 314.36 56.736 314.147 56.832C313.934 56.928 313.704 57 313.459 57.048C313.219 57.1013 312.952 57.128 312.659 57.128C312.312 57.128 311.992 57.0827 311.699 56.992C311.406 56.896 311.152 56.7547 310.939 56.568C310.726 56.3813 310.56 56.1493 310.443 55.872C310.326 55.5947 310.267 55.272 310.267 54.904C310.267 54.696 310.302 54.4907 310.371 54.288C310.44 54.08 310.552 53.8827 310.707 53.696C310.867 53.5093 311.072 53.3333 311.323 53.168C311.574 53.0027 311.88 52.8587 312.243 52.736C312.611 52.6133 313.038 52.5147 313.523 52.44C314.008 52.36 314.563 52.312 315.187 52.296V51.816C315.187 51.2667 315.07 50.8613 314.835 50.6C314.6 50.3333 314.262 50.2 313.819 50.2C313.499 50.2 313.232 50.2373 313.019 50.312C312.811 50.3867 312.627 50.472 312.467 50.568C312.307 50.6587 312.16 50.7413 312.027 50.816C311.899 50.8907 311.755 50.928 311.595 50.928C311.456 50.928 311.339 50.8933 311.243 50.824C311.147 50.7493 311.07 50.664 311.011 50.568L310.659 49.936ZM326.128 48.792V57H324.152V53.368H320.952V57H318.976V48.792H320.952V51.904H324.152V48.792H326.128ZM335.237 48.792V57H333.261V53.368H330.061V57H328.085V48.792H330.061V51.904H333.261V48.792H335.237ZM340.827 48.664C341.435 48.664 341.987 48.7627 342.483 48.96C342.984 49.1573 343.411 49.4373 343.763 49.8C344.12 50.1627 344.395 50.6053 344.587 51.128C344.779 51.6507 344.875 52.2347 344.875 52.88C344.875 53.5307 344.779 54.1173 344.587 54.64C344.395 55.1627 344.12 55.608 343.763 55.976C343.411 56.344 342.984 56.6267 342.483 56.824C341.987 57.0213 341.435 57.12 340.827 57.12C340.213 57.12 339.656 57.0213 339.155 56.824C338.653 56.6267 338.224 56.344 337.867 55.976C337.515 55.608 337.24 55.1627 337.043 54.64C336.851 54.1173 336.755 53.5307 336.755 52.88C336.755 52.2347 336.851 51.6507 337.043 51.128C337.24 50.6053 337.515 50.1627 337.867 49.8C338.224 49.4373 338.653 49.1573 339.155 48.96C339.656 48.7627 340.213 48.664 340.827 48.664ZM340.827 55.6C341.509 55.6 342.013 55.3707 342.339 54.912C342.669 54.4533 342.835 53.7813 342.835 52.896C342.835 52.0107 342.669 51.336 342.339 50.872C342.013 50.408 341.509 50.176 340.827 50.176C340.133 50.176 339.619 50.4107 339.283 50.88C338.952 51.344 338.787 52.016 338.787 52.896C338.787 53.776 338.952 54.448 339.283 54.912C339.619 55.3707 340.133 55.6 340.827 55.6ZM351.67 51.952C351.67 51.696 351.633 51.456 351.558 51.232C351.489 51.0027 351.382 50.8027 351.238 50.632C351.094 50.4613 350.91 50.328 350.686 50.232C350.468 50.1307 350.212 50.08 349.918 50.08C349.348 50.08 348.897 50.2427 348.566 50.568C348.241 50.8933 348.033 51.3547 347.942 51.952H351.67ZM347.902 53.144C347.934 53.5653 348.009 53.9307 348.126 54.24C348.244 54.544 348.398 54.7973 348.59 55C348.782 55.1973 349.009 55.3467 349.27 55.448C349.537 55.544 349.83 55.592 350.15 55.592C350.47 55.592 350.745 55.5547 350.974 55.48C351.209 55.4053 351.412 55.3227 351.582 55.232C351.758 55.1413 351.91 55.0587 352.038 54.984C352.172 54.9093 352.3 54.872 352.422 54.872C352.588 54.872 352.71 54.9333 352.79 55.056L353.358 55.776C353.14 56.032 352.894 56.248 352.622 56.424C352.35 56.5947 352.065 56.7333 351.766 56.84C351.473 56.9413 351.172 57.0133 350.862 57.056C350.558 57.0987 350.262 57.12 349.974 57.12C349.404 57.12 348.873 57.0267 348.382 56.84C347.892 56.648 347.465 56.368 347.102 56C346.74 55.6267 346.454 55.168 346.246 54.624C346.038 54.0747 345.934 53.44 345.934 52.72C345.934 52.16 346.025 51.6347 346.206 51.144C346.388 50.648 346.646 50.2187 346.982 49.856C347.324 49.488 347.737 49.1973 348.222 48.984C348.713 48.7707 349.265 48.664 349.878 48.664C350.396 48.664 350.873 48.7467 351.31 48.912C351.748 49.0773 352.124 49.32 352.438 49.64C352.753 49.9547 352.998 50.344 353.174 50.808C353.356 51.2667 353.446 51.792 353.446 52.384C353.446 52.6827 353.414 52.8853 353.35 52.992C353.286 53.0933 353.164 53.144 352.982 53.144H347.902Z" fill="#2D2D2D"/>
<defs>
<clipPath id="clip0_1701_18">
<rect width="36" height="36" fill="white" transform="translate(16)"/>
</clipPath>
<clipPath id="clip1_1701_18">
<rect width="36" height="36" fill="white" transform="translate(153)"/>
</clipPath>
<clipPath id="clip2_1701_18">
<rect width="36" height="36" fill="white" transform="translate(295)"/>
</clipPath>
</defs>
</svg>
